<?xml version="1.0" encoding="utf-8"?>
<!-- Generator: Adobe Illustrator 24.2.3, SVG Export Plug-In . SVG Version: 6.00 Build 0)  -->
<svg version="1.1" id="Layer_1" xmlns="http://www.w3.org/2000/svg" xmlns:xlink="http://www.w3.org/1999/xlink" x="0px" y="0px"
	 viewBox="0 0 1000 1000" style="enable-background:new 0 0 1000 1000;" xml:space="preserve">
<style type="text/css">
	.st0{fill:#003C71;}
	.st1{fill:#A8A8AA;}
	.st2{fill:#FF681D;}
</style>
<path class="st0" d="M225.1,510.3c-3.1,0-5.5-0.1-7.8-0.3c-9.2-0.2-9.3-6.3-9.3-11v-21.2h11.2c16.2,0,25.9,6.2,25.9,16.7
	C245.1,503.9,237,510.3,225.1,510.3 M207.8,436.1l0.7-0.1c4.3-0.6,7.2-1,14.1-1c9.2,0,19,3.4,19,13c0,13.1-12,14.9-23.7,14.9h-10
	L207.8,436.1z M185,426.1v86.1c0,6.7,0.8,9,6.3,10.8c8.4,2.5,24.2,3.4,30.8,3.4c14.6,0,48.7-2.9,48.7-30.2c0-13.2-10.4-24.5-26.3-27
	c13.8-3.1,21.1-14,21.1-24.7c0-24.4-33.8-26.3-44.2-26.3c-10.6,0-20.9,0.9-31.4,2.8C185.8,421.7,185,423.3,185,426.1"/>
<path class="st0" d="M315.6,511.7c4.3,0,7.1-0.3,10.2-1.2c1.5-0.5,2.3-1.2,2.3-3.3v-20.7c-2.1-0.1-4.1-0.3-5.9-0.3
	c-16.6,0-20.7,8.2-20.7,14C301.4,510.8,309.6,511.7,315.6,511.7 M327.9,468.3c0-6.2-1.5-9.7-14.3-9.7c-9.6,0-21.9,3.3-26.8,4.4
	c-2.6,0.6-3.2-0.8-3.2-2v-9.9c0-1.1,0-2.9,2.1-3.5c3.8-1.1,18.2-5,32.7-5c10.5,0,17.6,1.7,22.7,4.4c7.6,4.3,9.6,11.3,9.6,19.6v41.8
	c0,11.7-4.1,13.5-14.4,15.8c-5.5,1.2-12.5,2.1-21.1,2.1c-17.3,0-36.3-2.1-36.3-26c0-14,8.7-28.1,42.9-28.1c2,0,4.1,0,6.2,0.1V468.3z
	"/>
<path class="st0" d="M365.1,421.6l16.9-3c2.3-0.5,3.3,0.6,3.3,2.7v28.9c6.1-3.6,14.7-5.6,21.6-5.6c16.6,0,26.6,4.9,26.6,21.7v57.8
	c0,1.2-0.9,2.3-2.4,2.3H413c-1.5,0-2.4-1.1-2.4-2.3v-53.8c0-8.1-3.6-10-9-10c-4.6,0-12.5,2.1-16.3,4.6v59.3c0,1.2-0.9,2.3-2.4,2.3
	h-18.1c-1.5,0-2.4-1.1-2.4-2.3v-98.9C362.3,423,362.9,422.1,365.1,421.6"/>
<path class="st0" d="M497.9,447.6v12.5c0,3.6-1.8,4.3-3.2,4.9c-5.6,2.4-17,6.2-25.9,13.5v45.6c0,1.4-0.8,2.3-2.4,2.3h-18.1
	c-1.5,0-2.4-0.9-2.4-2.3v-73c0-2.1,0.8-3.5,2.7-3.8l16.6-2.7c2.4-0.5,3.6,0.8,3.6,2.4v11.7c6.8-5.8,15.8-11.9,23.1-13.8
	C496,443.8,497.9,444.8,497.9,447.6"/>
<path class="st0" d="M527.2,526.4h-18.1c-1.5,0-2.4-1.1-2.4-2.4v-73c0-2,0.6-3.4,2.6-3.6l16.6-2.7c2.4-0.5,3.6,0.6,3.6,2.4v77
	C529.5,525.4,528.7,526.4,527.2,526.4"/>
<path class="st0" d="M518.1,409.5c-7.3,0-13.2,5.9-13.2,13.2c0,7.3,5.9,13.2,13.2,13.2c7.3,0,13.2-5.9,13.2-13.2
	C531.3,415.4,525.4,409.5,518.1,409.5"/>
<path class="st1" d="M98.1,524.4c0.4,0.4,1,0.7,1.6,0.7c0.6,0,1.2-0.3,1.6-0.7l15-15c0.4-0.4,0.6-1,0.6-1.6v-57.1
	c0-1.3-1-2.3-2.3-2.3h-30c-1.3,0-2.3,1-2.3,2.3v57.1c0,0.6,0.2,1.2,0.6,1.6L98.1,524.4z"/>
<path class="st0" d="M98.1,535.5c0.4,0.4,1,0.7,1.6,0.7c0.6,0,1.2-0.3,1.6-0.7l22.8-22.8c0.4-0.4,0.6-1,0.6-1.6V425
	c0-1.3,1-2.3,2.3-2.3h30c1.3,0,2.3,1,2.3,2.3v100.4c0,0.6-0.2,1.2-0.6,1.6l-57.4,57.4c-0.4,0.4-1,0.7-1.6,0.7
	c-0.6,0-1.2-0.2-1.6-0.6L40.7,527c-0.4-0.4-0.6-1-0.6-1.6v-49c0-1.3,1-2.3,2.3-2.3h30c1.3,0,2.3,1,2.3,2.3v34.7
	c0,0.6,0.2,1.2,0.6,1.6L98.1,535.5z"/>
<path class="st2" d="M939.5,527.8c11.5,0,20.5-6.4,20.5-17.3v-0.2c0-10.4-9.6-13.8-18.5-16.5c-7.7-2.3-14.8-4.5-14.8-9.9v-0.2
	c0-4.8,4.3-8.4,11.1-8.4c5.6,0,11.7,2.1,17,5.6l3.9-6.5c-5.9-3.9-13.7-6.4-20.7-6.4c-11.4,0-19.6,6.6-19.6,16.5v0.2
	c0,10.6,10,13.7,19,16.3c7.6,2.1,14.4,4.3,14.4,10.1v0.2c0,5.6-5,9.1-11.9,9.1c-6.8,0-13.7-2.7-19.9-7.4l-4.3,6.1
	C922.1,524.5,931.3,527.8,939.5,527.8 M892.3,528c10.8,0,17.7-4.7,23.5-11.1l-5.5-5.1c-4.6,4.9-10.3,8.6-17.6,8.6
	c-12,0-21.2-9.9-21.2-22.4v-0.2c0-12.4,8.9-22.3,20.6-22.3c7.8,0,12.9,3.9,17.5,8.7l5.7-6c-5.3-5.7-12.1-10.3-23.1-10.3
	c-16.8,0-29.5,13.8-29.5,30.1v0.2C862.8,514.3,875.5,528,892.3,528 M847.3,526.7h8.6v-57.6h-8.6V526.7z M846.7,456.5h9.8V447h-9.8
	V456.5z M830.2,527.7c4.1,0,7.3-0.9,10.4-2.5v-7.3c-3,1.4-5.5,2-8.4,2c-5.8,0-9.7-2.6-9.7-9.6v-33.6h18.3v-7.6h-18.3v-17.4H814v17.4
	h-8v7.6h8v34.8C814,523.1,821,527.7,830.2,527.7 M784,527.8c11.5,0,20.5-6.4,20.5-17.3v-0.2c0-10.4-9.6-13.8-18.5-16.5
	c-7.7-2.3-14.8-4.5-14.8-9.9v-0.2c0-4.8,4.3-8.4,11.1-8.4c5.6,0,11.7,2.1,17,5.6l3.9-6.5c-5.9-3.9-13.7-6.4-20.7-6.4
	c-11.4,0-19.6,6.6-19.6,16.5v0.2c0,10.6,10,13.7,19,16.3c7.6,2.1,14.4,4.3,14.4,10.1v0.2c0,5.6-5,9.1-11.9,9.1
	c-6.8,0-13.7-2.7-19.9-7.4l-4.3,6.1C766.6,524.5,775.8,527.8,784,527.8 M745.9,526.7h8.6v-57.6h-8.6V526.7z M745.4,456.5h9.8V447
	h-9.8V456.5z M706,514.6c-10.7,0-19.9-8-19.9-19.6v-0.2c0-11.8,9-19.4,19.9-19.4c10.9,0,21.2,7.7,21.2,19.5v0.2
	C727.2,506.7,716.9,514.6,706,514.6 M706.1,544.7c9.1,0,16.8-2.6,21.9-7.7c4.7-4.7,7.3-11.5,7.3-20.4v-47.6h-8.6v10.4
	c-4.7-6.2-11.7-11.6-22.5-11.6c-13.7,0-27.1,10.4-27.1,27.2v0.2c0,16.6,13.3,27,27.1,27c10.6,0,17.6-5.5,22.6-12.1v6.8
	c0,13.5-8.2,20.5-20.9,20.5c-8.2,0-15.6-2.6-22.2-7.4l-3.9,6.7C687.7,542,696.6,544.7,706.1,544.7 M644.7,520.3
	c-12.1,0-21.3-10-21.3-22.4v-0.2c0-12.1,8.6-22.3,21.1-22.3c12.1,0,21.4,10.1,21.4,22.5v0.2C665.8,510.3,657.1,520.3,644.7,520.3
	 M644.4,528c17.4,0,30.2-13.8,30.2-30.1v-0.2c0-16.3-12.7-29.9-30-29.9c-17.4,0-30.1,13.8-30.1,30.1v0.2
	C614.6,514.4,627.2,528,644.4,528 M560.1,526.7h52.7v-8.1h-43.9v-69.8h-8.8V526.7z"/>
<path class="st2" d="M195.1,557.6c0.7,0,1.2-0.2,1.7-0.7c0.5-0.5,0.7-1,0.7-1.7c0-0.7-0.2-1.2-0.7-1.7c-0.5-0.5-1-0.7-1.7-0.7
	c-0.6,0-1.2,0.2-1.7,0.7c-0.5,0.5-0.7,1-0.7,1.7c0,0.6,0.2,1.2,0.7,1.7C193.9,557.3,194.5,557.6,195.1,557.6"/>
<path class="st2" d="M189.6,557.6c0.7,0,1.2-0.2,1.7-0.7c0.5-0.5,0.7-1,0.7-1.7c0-0.7-0.2-1.2-0.7-1.7c-0.5-0.5-1-0.7-1.7-0.7
	c-0.6,0-1.2,0.2-1.7,0.7c-0.5,0.5-0.7,1-0.7,1.7c0,0.6,0.2,1.2,0.7,1.7C188.4,557.3,189,557.6,189.6,557.6"/>
<path class="st2" d="M208.6,579.4c-0.6,0-1.2,0.2-1.7,0.7c-0.5,0.5-0.7,1-0.7,1.7c0,0.7,0.2,1.2,0.7,1.7c0.5,0.5,1,0.7,1.7,0.7
	c0.7,0,1.2-0.2,1.7-0.7c0.5-0.5,0.7-1,0.7-1.7c0-0.6-0.2-1.2-0.7-1.7C209.8,579.6,209.2,579.4,208.6,579.4"/>
<path class="st2" d="M203.1,579.4c-0.6,0-1.2,0.2-1.7,0.7c-0.5,0.5-0.7,1-0.7,1.7c0,0.7,0.2,1.2,0.7,1.7c0.5,0.5,1,0.7,1.7,0.7
	c0.6,0,1.2-0.2,1.7-0.7c0.5-0.5,0.7-1,0.7-1.7c0-0.6-0.2-1.2-0.7-1.7C204.3,579.6,203.7,579.4,203.1,579.4"/>
<path class="st2" d="M215.1,559.3c0.6,0,1.2-0.2,1.7-0.7c0.5-0.5,0.7-1,0.7-1.7c0-0.7-0.2-1.2-0.7-1.7c-0.5-0.5-1-0.7-1.7-0.7
	c-0.7,0-1.2,0.2-1.7,0.7c-0.5,0.5-0.7,1-0.7,1.7c0,0.7,0.2,1.2,0.7,1.7C213.9,559,214.5,559.3,215.1,559.3"/>
<path class="st2" d="M220.6,559.3c0.7,0,1.2-0.2,1.7-0.7c0.5-0.5,0.7-1,0.7-1.7c0-0.7-0.2-1.2-0.7-1.7c-0.5-0.5-1-0.7-1.7-0.7
	c-0.6,0-1.2,0.2-1.7,0.7c-0.5,0.5-0.7,1-0.7,1.7c0,0.7,0.2,1.2,0.7,1.7C219.4,559,220,559.3,220.6,559.3"/>
<path class="st2" d="M259.3,579.3c-0.6,0-1.2,0.2-1.7,0.7c-0.5,0.5-0.7,1-0.7,1.7c0,0.7,0.2,1.2,0.7,1.7c0.5,0.5,1,0.7,1.7,0.7
	c0.7,0,1.2-0.2,1.7-0.7c0.5-0.5,0.7-1,0.7-1.7c0-0.6-0.2-1.2-0.7-1.7C260.5,579.6,259.9,579.3,259.3,579.3"/>
<path class="st2" d="M265.9,565.3c-0.7-1-1.7-1.8-2.9-2.4c-1.2-0.6-2.7-0.9-4.4-0.9c-0.9,0-1.9,0.1-2.8,0.3
	c-0.9,0.2-1.6,0.4-2.1,0.6v3.9c0.8-0.2,1.6-0.4,2.3-0.5c0.8-0.1,1.3-0.1,1.7-0.1c1.1,0,2,0.1,2.7,0.5c0.7,0.3,1.3,0.7,1.8,1.3
	c0.5,0.5,0.8,1.2,1,1.9c0.2,0.8,0.4,1.6,0.4,2.5h-12c0,0,0,0,0,0c-1.1,0-1.8-0.2-2.2-0.5c-0.3-0.4-0.5-1-0.5-1.8v-7.2h-4.4v7.8
	c0,0.7-0.2,1.2-0.6,1.4c-0.4,0.2-0.9,0.3-1.5,0.3c-0.8,0-1.4-0.2-1.7-0.6c-0.3-0.4-0.5-1-0.5-1.8v-5.7h-4.4v6.4
	c0,0.7-0.2,1.1-0.7,1.3c-0.5,0.2-1,0.3-1.7,0.3c-0.8,0-1.4-0.2-1.8-0.6c-0.4-0.4-0.6-1-0.6-1.7v-5.7h-4.4v6.4c0,0.4,0,0.7-0.1,0.9
	c-0.1,0.2-0.2,0.4-0.4,0.5c-0.2,0.1-0.5,0.2-0.8,0.2c-0.3,0-0.7,0-1.2,0h-1.2v0c-1.1,0-1.8-0.2-2.1-0.5c-0.3-0.4-0.5-1-0.5-1.8v-7.2
	H216v7.6c0,0.8-0.2,1.4-0.5,1.6c-0.3,0.2-0.8,0.4-1.6,0.4h-2.1c-1.1,0-1.8-0.2-2.3-0.5c-0.4-0.4-0.7-1-0.7-1.8v-7.2h-4.4v7.6
	c0,0.8-0.2,1.4-0.5,1.6c-0.3,0.2-0.8,0.4-1.6,0.4h-2.7c0,0,0,0,0,0H199c-0.5,0-0.8-0.1-0.9-0.3c-0.1-0.2-0.2-0.5-0.2-1.1v-10.1h-5.7
	c-0.8,0-1.6,0.1-2.5,0.4s-1.6,0.6-2.3,1.2c-0.7,0.5-1.2,1.2-1.7,2.1c-0.4,0.9-0.7,1.9-0.7,3.1c0,1.3,0.2,2.3,0.7,3.1
	c0.5,0.8,1,1.4,1.7,1.9c0.7,0.4,1.4,0.8,2.1,0.9c0.7,0.2,1.4,0.2,2,0.2c0.4,0,0.8,0,1.2-0.1c0.4,0,0.8-0.1,1.2-0.2
	c0.2,0.6,0.4,1,0.8,1.4c0.3,0.3,0.7,0.6,1.1,0.8c0.4,0.2,0.9,0.3,1.4,0.4c0.5,0.1,1,0.1,1.6,0.1h1.1h0h3.4c0.4,0,0.9,0,1.4,0
	c0.5,0,0.9-0.1,1.3-0.2c0.4-0.1,0.8-0.3,1.2-0.5c0.4-0.2,0.7-0.5,1-0.9c0.2,0.4,0.5,0.7,0.8,0.9c0.3,0.2,0.6,0.4,1,0.5
	c0.3,0.1,0.7,0.2,1,0.2c0.4,0,0.7,0.1,1,0.1h0h2.8c0.5,0,0.9,0,1.4,0c0.5,0,0.9-0.1,1.3-0.2c0.4-0.1,0.8-0.3,1.2-0.5
	c0.4-0.2,0.7-0.5,1-0.9c0.4,0.7,0.9,1.2,1.5,1.4c0.6,0.2,1.2,0.3,1.8,0.3c0,0,0,0,0.1,0h1.1c1.5,0,2.8-0.1,3.7-0.3
	c1-0.2,1.8-0.7,2.4-1.5c1,1.2,2.6,1.8,4.8,1.8c0.8,0,1.6-0.1,2.3-0.3c0.7-0.2,1.4-0.7,2.1-1.5c0.6,0.7,1.3,1.1,2.1,1.4
	c0.8,0.3,1.6,0.4,2.2,0.4c0.8,0,1.6-0.1,2.4-0.3c0.8-0.2,1.5-0.7,2.1-1.5c0.4,0.7,0.9,1.2,1.6,1.4c0.5,0.2,1,0.3,1.6,0.3
	c0.1,0,0.2,0,0.3,0H268V573c0-1.4-0.2-2.8-0.5-4.2C267.1,567.5,266.6,566.3,265.9,565.3 M193.4,569.6c-0.3,0.1-0.6,0.2-0.9,0.2
	c-0.3,0-0.6,0-0.9,0c-0.5,0-0.9-0.1-1.2-0.2c-0.3-0.2-0.5-0.3-0.7-0.6c-0.2-0.2-0.3-0.5-0.4-0.8c-0.1-0.3-0.1-0.6-0.1-0.9
	c0-0.7,0.2-1.3,0.6-1.7c0.4-0.4,1-0.7,1.9-0.7h1.7V569.6z"/>
<path class="st2" d="M301.3,572.2h-3.9c-0.5,0-1,0-1.3-0.1c-0.3-0.1-0.6-0.2-0.7-0.4c-0.2-0.2-0.3-0.4-0.3-0.7
	c0-0.3-0.1-0.7-0.1-1.1V552h-4.4v18.3c0,0.8-0.2,1.4-0.5,1.6c-0.3,0.2-0.8,0.4-1.6,0.4h-2.1c0,0,0,0,0,0s0,0,0,0H284v-1
	c0-1.3-0.1-2.5-0.3-3.5c-0.2-1.1-0.6-2-1.1-2.8c-0.5-0.8-1.2-1.4-2-1.8c-0.8-0.4-1.9-0.6-3.1-0.6c-1.1,0-2.1,0.2-2.9,0.6
	c-0.9,0.4-1.6,1-2.2,1.7c-0.6,0.7-1,1.5-1.3,2.4c-0.3,0.9-0.5,1.8-0.5,2.7c0,1.1,0.2,2.1,0.5,2.9c0.3,0.8,0.8,1.5,1.4,2
	c0.6,0.5,1.3,0.9,2.2,1.1c0.8,0.2,1.7,0.3,2.7,0.3h2.1c-0.1,0.4-0.2,0.8-0.5,1.2c-0.2,0.4-0.6,0.7-1.1,0.9c-0.5,0.3-1.2,0.4-1.9,0.6
	c-0.8,0.1-1.8,0.2-2.9,0.2h-0.8v4.1h1c3.4,0,5.9-0.6,7.6-1.7c1.7-1.1,2.7-2.9,3-5.3h2.6h0h0h2.8c0.5,0,0.9,0,1.4,0
	c0.5,0,0.9-0.1,1.3-0.2c0.4-0.1,0.8-0.3,1.2-0.5c0.4-0.2,0.7-0.5,1-0.9c0.4,0.7,0.9,1.2,1.5,1.4c0.6,0.2,1.2,0.3,1.8,0.3h0h8.3V552
	h-4.4V572.2z M279.6,572.2h-2.2c-0.8,0-1.4-0.2-1.8-0.6c-0.5-0.4-0.7-1.1-0.7-2.2c0-0.9,0.2-1.6,0.6-2.1c0.4-0.6,1-0.8,1.8-0.8
	c0.9,0,1.6,0.4,1.9,1.1c0.3,0.7,0.5,1.6,0.5,2.7V572.2z"/>
<rect x="309.7" y="552" class="st2" width="4.4" height="24.1"/>
<path class="st2" d="M348.3,572.2h-14.6c-0.8,0-1.4,0-1.9-0.1c-0.5-0.1-0.9-0.2-1.2-0.3c-0.3-0.2-0.5-0.4-0.6-0.6
	c-0.1-0.3-0.2-0.6-0.2-1v-4.9h-4.4v5.6c0,1,0.1,1.8,0.4,2.5c0.2,0.7,0.6,1.2,1.2,1.7c0.5,0.4,1.3,0.7,2.2,0.9c0.9,0.2,2,0.3,3.3,0.3
	h20.2v-13.4h-4.4V572.2z"/>
<path class="st2" d="M342,561.2c0.7,0,1.2-0.2,1.7-0.7c0.5-0.5,0.7-1,0.7-1.7c0-0.7-0.2-1.2-0.7-1.7c-0.5-0.5-1-0.7-1.7-0.7
	c-0.6,0-1.2,0.2-1.7,0.7c-0.5,0.5-0.7,1-0.7,1.7c0,0.6,0.2,1.2,0.7,1.7C340.8,561,341.4,561.2,342,561.2"/>
<path class="st2" d="M336.5,561.2c0.6,0,1.2-0.2,1.7-0.7c0.5-0.5,0.7-1,0.7-1.7c0-0.7-0.2-1.2-0.7-1.7c-0.5-0.5-1-0.7-1.7-0.7
	c-0.7,0-1.2,0.2-1.7,0.7c-0.5,0.5-0.7,1-0.7,1.7c0,0.6,0.2,1.2,0.7,1.7C335.3,561,335.9,561.2,336.5,561.2"/>
<path class="st2" d="M378.8,565c-0.5-0.6-1.2-1.1-2-1.4c-0.8-0.3-1.6-0.5-2.6-0.5c-0.6,0-1.2,0.1-1.9,0.2c-0.6,0.2-1.3,0.5-1.9,0.9
	c-0.6,0.5-1.2,1.1-1.8,2c-0.6,0.9-1.1,2-1.6,3.4c-0.3,0.9-0.6,1.5-0.9,2c-0.3,0.5-0.8,0.7-1.4,0.7h-1.5h-0.6c-0.5,0-0.9-0.1-1.2-0.3
	c-0.3-0.2-0.4-0.7-0.4-1.5V552h-4.4v19c0,1,0.1,1.8,0.4,2.4c0.3,0.7,0.6,1.2,1.1,1.6c0.5,0.4,1,0.7,1.7,0.8c0.6,0.2,1.3,0.2,2.1,0.2
	h1.4h0h1.8c0.7,0,1.4-0.1,2-0.2c0.6-0.1,1.2-0.5,1.8-1.2c1,0.7,2,1.1,2.9,1.4c0.9,0.3,1.8,0.4,2.7,0.4c1,0,1.9-0.2,2.6-0.5
	c0.8-0.3,1.4-0.8,1.9-1.4c0.5-0.6,0.9-1.3,1.1-2.1c0.2-0.8,0.4-1.7,0.4-2.6c0-1-0.1-1.9-0.4-2.8C379.8,566.3,379.4,565.6,378.8,565
	 M375.6,571.8c-0.4,0.5-0.9,0.7-1.7,0.7c-0.6,0-1.2-0.1-1.7-0.4c-0.6-0.2-1.1-0.5-1.7-0.9c0.4-1.4,0.9-2.5,1.5-3.2
	c0.6-0.7,1.3-1,2-1c0.4,0,0.7,0.1,1,0.2c0.3,0.2,0.5,0.4,0.7,0.6c0.2,0.3,0.3,0.6,0.4,0.9c0.1,0.3,0.1,0.7,0.1,1
	C376.2,570.6,376,571.3,375.6,571.8"/>
<path class="st2" d="M404.5,559.3c0.7,0,1.2-0.2,1.7-0.7c0.5-0.5,0.7-1,0.7-1.7c0-0.7-0.2-1.2-0.7-1.7c-0.5-0.5-1-0.7-1.7-0.7
	c-0.6,0-1.2,0.2-1.7,0.7c-0.5,0.5-0.7,1-0.7,1.7c0,0.7,0.2,1.2,0.7,1.7C403.3,559,403.9,559.3,404.5,559.3"/>
<path class="st2" d="M431.4,572.2h-3.9c-0.5,0-1,0-1.3-0.1c-0.3-0.1-0.6-0.2-0.7-0.4c-0.2-0.2-0.3-0.4-0.3-0.7
	c0-0.3-0.1-0.7-0.1-1.1V552h-4.4v18.3c0,0.8-0.1,1.4-0.4,1.6c-0.3,0.2-0.8,0.4-1.6,0.4h-2.1c0,0,0,0,0,0h-2.2c0-1.4-0.2-2.7-0.6-3.9
	c-0.3-1.2-0.9-2.3-1.6-3.3c-0.7-0.9-1.7-1.7-2.9-2.2c-1.2-0.6-2.6-0.8-4.3-0.8c-0.9,0-1.8,0.1-2.7,0.3c-0.9,0.2-1.6,0.4-2.1,0.6v3.9
	c0.4-0.1,0.8-0.2,1.2-0.3c0.4-0.1,0.8-0.1,1.1-0.2c0.4,0,0.7-0.1,1-0.1c0.3,0,0.5,0,0.7,0c1.1,0,2,0.1,2.7,0.4
	c0.7,0.3,1.3,0.7,1.8,1.3c0.5,0.5,0.8,1.2,1,1.9c0.2,0.8,0.4,1.6,0.4,2.5H398c0,0,0,0,0,0c-0.2,0-0.5-0.1-0.7-0.2
	c-0.2-0.1-0.5-0.3-0.7-0.6c-0.3-0.3-0.5-0.7-0.9-1.2c-0.3-0.5-0.7-1.1-1.1-1.8l-4-6.9l-4,2.6l3.1,4.5c0.6,0.8,1,1.4,1.2,1.8
	c0.2,0.4,0.3,0.7,0.3,0.9c0,0.2-0.1,0.4-0.4,0.6s-0.7,0.2-1.2,0.2h-6.7v3.9h5.9c0.9,0,1.7-0.1,2.4-0.3c0.7-0.2,1.5-0.7,2.1-1.4
	c0.3,0.3,0.6,0.5,0.9,0.8c0.3,0.2,0.6,0.4,0.9,0.5c0.3,0.1,0.7,0.2,1.2,0.3c0.5,0.1,1,0.1,1.7,0.1h0h18.5h0h2.8c0.4,0,0.9,0,1.4,0
	c0.5,0,0.9-0.1,1.3-0.2c0.4-0.1,0.8-0.3,1.2-0.5c0.4-0.2,0.7-0.5,1-0.9c0.4,0.7,0.9,1.2,1.5,1.4c0.6,0.2,1.2,0.3,1.8,0.3h8.3V552
	h-4.4V572.2z"/>
<path class="st2" d="M466.9,559.1c-1.3,0-2.4,0.2-3.3,0.7c-0.9,0.4-1.7,1-2.4,1.8c-0.6,0.7-1.1,1.5-1.4,2.4
	c-0.3,0.9-0.5,1.8-0.5,2.6c0,0.8,0.1,1.4,0.4,2c0.2,0.6,0.6,1.1,1,1.6c0.4,0.5,0.9,0.9,1.5,1.2c0.6,0.4,1.2,0.7,1.8,1
	c0.6,0.3,1,0.6,1.3,0.8c0.3,0.2,0.4,0.5,0.4,0.8c0,0.3-0.1,0.7-0.3,1c-0.2,0.4-0.6,0.7-1.1,1.1c-0.5,0.3-1.3,0.6-2.3,0.8
	c-1,0.2-2.3,0.3-3.8,0.3c-1.3,0-2.3-0.1-3.2-0.3c-0.8-0.2-1.5-0.5-2-0.9c-0.5-0.4-0.9-0.8-1.1-1.4c-0.2-0.5-0.3-1.1-0.3-1.7v-5.2
	h-4.4v5.4c0,1.2,0.2,2.3,0.6,3.3c0.4,1,1,1.9,1.9,2.6c0.9,0.7,2,1.3,3.4,1.7c1.4,0.4,3.1,0.6,5.2,0.6c2.3,0,4.2-0.3,5.8-0.8
	c1.5-0.5,2.8-1.2,3.7-2c0.9-0.8,1.6-1.7,2-2.7c0.4-1,0.6-2,0.6-2.9c0-0.5-0.1-0.9-0.2-1.3c-0.1-0.4-0.3-0.8-0.6-1.2
	c-0.3-0.4-0.7-0.7-1.2-1.1c-0.5-0.4-1.2-0.7-2-1.1c-0.7-0.3-1.2-0.7-1.7-1c-0.5-0.4-0.7-0.8-0.7-1.3c0-0.3,0.1-0.7,0.2-1
	c0.1-0.3,0.3-0.6,0.6-0.9c0.3-0.3,0.6-0.5,1.1-0.7c0.4-0.2,0.9-0.3,1.5-0.3c0.3,0,0.8,0,1.3,0.1c0.6,0.1,1.3,0.2,2,0.3v-3.9
	c-0.3-0.1-0.8-0.3-1.4-0.4C468.5,559.2,467.7,559.1,466.9,559.1"/>
<path class="st2" d="M461.4,583.5c-0.6,0-1.2,0.2-1.7,0.7c-0.5,0.5-0.7,1-0.7,1.7c0,0.7,0.2,1.2,0.7,1.7c0.5,0.5,1,0.7,1.7,0.7
	c0.6,0,1.2-0.2,1.7-0.7c0.5-0.5,0.7-1,0.7-1.7c0-0.6-0.2-1.2-0.7-1.7C462.6,583.7,462,583.5,461.4,583.5"/>
<path class="st2" d="M455.9,583.5c-0.7,0-1.2,0.2-1.7,0.7c-0.5,0.5-0.7,1-0.7,1.7c0,0.7,0.2,1.2,0.7,1.7c0.5,0.5,1,0.7,1.7,0.7
	c0.6,0,1.2-0.2,1.7-0.7c0.5-0.5,0.7-1,0.7-1.7c0-0.6-0.2-1.2-0.7-1.7C457.1,583.7,456.5,583.5,455.9,583.5"/>
<path class="st2" d="M508,579.3c-0.6,0-1.2,0.2-1.7,0.7c-0.5,0.5-0.7,1-0.7,1.7c0,0.7,0.2,1.2,0.7,1.7c0.5,0.5,1,0.7,1.7,0.7
	c0.7,0,1.2-0.2,1.7-0.7c0.5-0.5,0.7-1,0.7-1.7c0-0.7-0.2-1.2-0.7-1.7C509.2,579.5,508.6,579.3,508,579.3"/>
<path class="st2" d="M516.6,572.2h-3.9c-1.1,0-1.8-0.2-2.1-0.5c-0.3-0.4-0.5-1-0.5-1.8v-7.2h-4.4v7.6c0,0.8-0.2,1.4-0.5,1.6
	c-0.3,0.2-0.8,0.4-1.6,0.4h-2.1h-2.2c0-1.4-0.2-2.7-0.6-3.9s-0.9-2.3-1.6-3.3c-0.7-0.9-1.7-1.7-2.9-2.2c-1.2-0.6-2.6-0.8-4.3-0.8
	c-0.9,0-1.8,0.1-2.7,0.3c-0.9,0.2-1.6,0.4-2.1,0.6v3.9c0.4-0.1,0.8-0.2,1.2-0.3c0.4-0.1,0.8-0.1,1.2-0.2c0.4-0.1,0.7-0.1,1-0.1
	c0.3,0,0.5,0,0.7,0c1.1,0,2,0.1,2.7,0.5c0.7,0.3,1.3,0.7,1.8,1.3c0.4,0.5,0.8,1.2,1,1.9c0.2,0.8,0.4,1.6,0.4,2.5h-12
	c-0.3,0-0.6,0-0.9-0.1c-0.3-0.1-0.6-0.2-0.8-0.4c-0.2-0.2-0.4-0.4-0.6-0.7c-0.1-0.3-0.2-0.7-0.2-1.1v-5.7h-4.4v10.1
	c0,0.8,0,1.6-0.1,2.1c-0.1,0.6-0.3,1.1-0.5,1.5c-0.3,0.4-0.7,0.7-1.2,0.9c-0.5,0.2-1.3,0.3-2.2,0.3v4.1c1.4,0,2.7-0.2,3.7-0.4
	c1-0.3,1.9-0.7,2.6-1.4c0.7-0.6,1.2-1.5,1.5-2.5c0.3-1,0.5-2.3,0.5-3.8c0.4,0.4,0.8,0.7,1.4,0.9c0.2,0.1,0.5,0.1,0.7,0.1
	c0,0,0,0,0,0c0.2,0,0.3,0,0.5,0h18.6h2.8c0.4,0,0.9,0,1.4,0c0.5,0,0.9-0.1,1.3-0.2c0.4-0.1,0.8-0.3,1.2-0.5c0.4-0.2,0.7-0.5,1-0.9
	c0.4,0.7,0.9,1.2,1.5,1.4c0.6,0.2,1.2,0.3,1.8,0.3c0,0,0,0,0,0h8.3V552h-4.4V572.2z"/>
<rect x="525.1" y="552" class="st2" width="4.4" height="24.1"/>
</svg>
